<svg width="1070" height="999" viewBox="0 0 1070 999" fill="none" xmlns="http://www.w3.org/2000/svg">
<ellipse cx="534.84" cy="499.245" rx="534.84" ry="499.245" fill="#8B2626"/>
<ellipse cx="534.84" cy="499.245" rx="513.009" ry="478.868" fill="#F4EFE6"/>
<ellipse cx="534.84" cy="499.245" rx="491.179" ry="458.491" fill="#8B2626"/>
<path d="M778.523 548.558V669.6C766.473 684.272 750.231 698.943 729.798 713.615C709.365 728.287 684.216 740.513 654.353 750.294C625.013 759.586 590.434 764.232 550.616 764.232C495.08 763.743 446.093 752.495 403.655 730.487C361.217 707.991 327.948 676.936 303.847 637.322C280.271 597.219 268.482 550.515 268.482 497.207C268.482 443.9 280.271 397.195 303.847 357.093C327.948 316.99 361.217 285.935 403.655 263.927C446.093 241.431 495.08 230.182 550.616 230.182C579.432 230.182 605.366 232.383 628.418 236.785C651.471 241.186 672.166 247.299 690.504 255.124C709.365 262.46 726.392 270.774 741.586 280.066L757.304 383.502H750.231C742.372 355.136 729.274 331.417 710.937 312.344C693.123 292.782 670.594 277.865 643.35 267.595C616.106 257.325 585.195 252.19 550.616 252.19C506.606 252.19 467.836 262.46 434.304 283.001C400.773 303.541 374.577 332.151 355.716 368.83C336.854 405.509 327.424 448.302 327.424 497.207C327.424 546.113 336.854 588.905 355.716 625.585C374.577 662.264 400.773 690.874 434.304 711.414C467.836 731.465 506.606 741.736 550.616 742.225C573.668 742.225 595.673 739.779 616.63 734.889C638.111 729.509 658.282 722.173 677.143 712.881C696.005 703.1 712.77 691.607 727.44 678.403L728.226 548.558C728.226 526.551 714.866 515.547 688.146 515.547H675.572V508.211H829.606V515.547H817.817C790.573 515.547 777.475 526.551 778.523 548.558Z" fill="#F4EFE6"/>
</svg>
