<?xml version="1.0" standalone="no"?>
<!DOCTYPE svg PUBLIC "-//W3C//DTD SVG 20010904//EN"
 "http://www.w3.org/TR/2001/REC-SVG-20010904/DTD/svg10.dtd">
<svg version="1.0" xmlns="http://www.w3.org/2000/svg"
 width="16.000000pt" height="16.000000pt" viewBox="0 0 16.000000 16.000000"
 preserveAspectRatio="xMidYMid meet">

<g transform="translate(0.000000,16.000000) scale(0.100000,-0.100000)"
fill="#000000" stroke="none">
<path d="M101 148 c-6 -7 -26 -13 -44 -13 -27 0 -32 -4 -35 -25 -2 -14 -8 -35
-13 -46 -8 -15 -8 -28 0 -43 14 -25 33 -27 51 -6 7 8 20 15 29 15 10 0 30 19
45 42 23 35 26 46 17 65 -12 26 -30 30 -50 11z"/>
</g>
</svg>
